<svg width="278" height="62" viewBox="0 0 278 62" fill="none" xmlns="http://www.w3.org/2000/svg">
<path d="M220.993 0.680379C237.437 0.73122 250.71 14.1021 250.641 30.5453C250.621 35.3062 249.483 39.8018 247.479 43.7866L253.943 53.9013C256.2 57.4322 253.601 62.1105 249.55 61.8106L224.725 59.9734C223.422 60.1434 222.093 60.2319 220.743 60.2277L29.7796 59.6391C13.3363 59.5881 0.0624879 46.2165 0.131743 29.7731C0.201221 13.33 13.5872 0.0412738 30.0304 0.0917311L220.993 0.680379Z" fill="url(#paint0_linear_65_3)"/>
<path d="M21.4786 21.8852V11.3852H30.3136V21.8852H29.2186V12.0452L29.5036 12.3452H22.2886L22.5736 12.0452V21.8852H21.4786ZM37.6666 21.9602C36.9866 21.9602 36.3716 21.8052 35.8216 21.4952C35.2716 21.1752 34.8316 20.7202 34.5016 20.1302C34.1816 19.5302 34.0216 18.8002 34.0216 17.9402C34.0216 17.0802 34.1816 16.3552 34.5016 15.7652C34.8216 15.1652 35.2566 14.7102 35.8066 14.4002C36.3566 14.0902 36.9766 13.9352 37.6666 13.9352C38.4166 13.9352 39.0866 14.1052 39.6766 14.4452C40.2766 14.7752 40.7466 15.2452 41.0866 15.8552C41.4266 16.4552 41.5966 17.1502 41.5966 17.9402C41.5966 18.7402 41.4266 19.4402 41.0866 20.0402C40.7466 20.6402 40.2766 21.1102 39.6766 21.4502C39.0866 21.7902 38.4166 21.9602 37.6666 21.9602ZM33.6016 24.7952V14.0102H34.6216V16.3802L34.5166 17.9552L34.6666 19.5452V24.7952H33.6016ZM37.5916 21.0152C38.1516 21.0152 38.6516 20.8902 39.0916 20.6402C39.5316 20.3802 39.8816 20.0202 40.1416 19.5602C40.4016 19.0902 40.5316 18.5502 40.5316 17.9402C40.5316 17.3302 40.4016 16.7952 40.1416 16.3352C39.8816 15.8752 39.5316 15.5152 39.0916 15.2552C38.6516 14.9952 38.1516 14.8652 37.5916 14.8652C37.0316 14.8652 36.5266 14.9952 36.0766 15.2552C35.6366 15.5152 35.2866 15.8752 35.0266 16.3352C34.7766 16.7952 34.6516 17.3302 34.6516 17.9402C34.6516 18.5502 34.7766 19.0902 35.0266 19.5602C35.2866 20.0202 35.6366 20.3802 36.0766 20.6402C36.5266 20.8902 37.0316 21.0152 37.5916 21.0152ZM43.8848 21.8852V14.0102H44.9498V20.2652L50.2148 14.0102H51.1598V21.8852H50.0948V15.6152L44.8448 21.8852H43.8848ZM54.2119 21.8852V14.0102H57.6919C58.5819 14.0102 59.2819 14.1802 59.7919 14.5202C60.3119 14.8602 60.5719 15.3602 60.5719 16.0202C60.5719 16.6602 60.3269 17.1552 59.8369 17.5052C59.3469 17.8452 58.7019 18.0152 57.9019 18.0152L58.1119 17.7002C59.0519 17.7002 59.7419 17.8752 60.1819 18.2252C60.6219 18.5752 60.8419 19.0802 60.8419 19.7402C60.8419 20.4202 60.5919 20.9502 60.0919 21.3302C59.6019 21.7002 58.8369 21.8852 57.7969 21.8852H54.2119ZM55.2469 21.0452H57.7519C58.4219 21.0452 58.9269 20.9402 59.2669 20.7302C59.6169 20.5102 59.7919 20.1602 59.7919 19.6802C59.7919 19.2002 59.6369 18.8502 59.3269 18.6302C59.0169 18.4102 58.5269 18.3002 57.8569 18.3002H55.2469V21.0452ZM55.2469 17.5052H57.6169C58.2269 17.5052 58.6919 17.3902 59.0119 17.1602C59.3419 16.9302 59.5069 16.5952 59.5069 16.1552C59.5069 15.7152 59.3419 15.3852 59.0119 15.1652C58.6919 14.9452 58.2269 14.8352 57.6169 14.8352H55.2469V17.5052ZM66.7129 21.9602C65.8929 21.9602 65.1729 21.7902 64.5529 21.4502C63.9329 21.1002 63.4479 20.6252 63.0979 20.0252C62.7479 19.4152 62.5729 18.7202 62.5729 17.9402C62.5729 17.1602 62.7379 16.4702 63.0679 15.8702C63.4079 15.2702 63.8679 14.8002 64.4479 14.4602C65.0379 14.1102 65.6979 13.9352 66.4279 13.9352C67.1679 13.9352 67.8229 14.1052 68.3929 14.4452C68.9729 14.7752 69.4279 15.2452 69.7579 15.8552C70.0879 16.4552 70.2529 17.1502 70.2529 17.9402C70.2529 17.9902 70.2479 18.0452 70.2379 18.1052C70.2379 18.1552 70.2379 18.2102 70.2379 18.2702H63.3829V17.4752H69.6679L69.2479 17.7902C69.2479 17.2202 69.1229 16.7152 68.8729 16.2752C68.6329 15.8252 68.3029 15.4752 67.8829 15.2252C67.4629 14.9752 66.9779 14.8502 66.4279 14.8502C65.8879 14.8502 65.4029 14.9752 64.9729 15.2252C64.5429 15.4752 64.2079 15.8252 63.9679 16.2752C63.7279 16.7252 63.6079 17.2402 63.6079 17.8202V17.9852C63.6079 18.5852 63.7379 19.1152 63.9979 19.5752C64.2679 20.0252 64.6379 20.3802 65.1079 20.6402C65.5879 20.8902 66.1329 21.0152 66.7429 21.0152C67.2229 21.0152 67.6679 20.9302 68.0779 20.7602C68.4979 20.5902 68.8579 20.3302 69.1579 19.9802L69.7579 20.6702C69.4079 21.0902 68.9679 21.4102 68.4379 21.6302C67.9179 21.8502 67.3429 21.9602 66.7129 21.9602ZM73.7588 21.8852V14.6552L74.0288 14.9402H70.7738V14.0102H77.8088V14.9402H74.5538L74.8238 14.6552V21.8852H73.7588ZM79.3636 18.7352L79.1536 11.3852H80.4136L80.1886 18.7352H79.3636ZM79.7836 21.9602C79.5636 21.9602 79.3736 21.8852 79.2136 21.7352C79.0636 21.5752 78.9886 21.3902 78.9886 21.1802C78.9886 20.9602 79.0636 20.7802 79.2136 20.6402C79.3736 20.4902 79.5636 20.4152 79.7836 20.4152C80.0136 20.4152 80.1986 20.4902 80.3386 20.6402C80.4886 20.7802 80.5636 20.9602 80.5636 21.1802C80.5636 21.3902 80.4886 21.5752 80.3386 21.7352C80.1986 21.8852 80.0136 21.9602 79.7836 21.9602ZM93.7709 21.8852V18.4052L94.0709 18.7052H90.6359C89.7959 18.7052 89.0759 18.5602 88.4759 18.2702C87.8859 17.9802 87.4309 17.5702 87.1109 17.0402C86.8009 16.5002 86.6459 15.8552 86.6459 15.1052C86.6459 14.3052 86.8159 13.6302 87.1559 13.0802C87.4959 12.5202 87.9759 12.1002 88.5959 11.8202C89.2259 11.5302 89.9559 11.3852 90.7859 11.3852H94.8659V21.8852H93.7709ZM86.6459 21.8852L89.2259 18.1952H90.3659L87.8309 21.8852H86.6459ZM93.7709 18.0902V12.0302L94.0709 12.3452H90.8309C89.8509 12.3452 89.0909 12.5802 88.5509 13.0502C88.0209 13.5102 87.7559 14.1852 87.7559 15.0752C87.7559 15.9352 88.0059 16.6002 88.5059 17.0702C89.0059 17.5302 89.7459 17.7602 90.7259 17.7602H94.0709L93.7709 18.0902ZM102.338 21.8852V11.3852H106.268C107.158 11.3852 107.923 11.5302 108.563 11.8202C109.203 12.1002 109.693 12.5102 110.033 13.0502C110.383 13.5802 110.558 14.2252 110.558 14.9852C110.558 15.7252 110.383 16.3652 110.033 16.9052C109.693 17.4352 109.203 17.8452 108.563 18.1352C107.923 18.4252 107.158 18.5702 106.268 18.5702H102.953L103.448 18.0452V21.8852H102.338ZM103.448 18.1352L102.953 17.5952H106.238C107.288 17.5952 108.083 17.3702 108.623 16.9202C109.173 16.4602 109.448 15.8152 109.448 14.9852C109.448 14.1452 109.173 13.4952 108.623 13.0352C108.083 12.5752 107.288 12.3452 106.238 12.3452H102.953L103.448 11.8202V18.1352ZM115.767 21.9602C115.007 21.9602 114.322 21.7902 113.712 21.4502C113.112 21.1002 112.637 20.6252 112.287 20.0252C111.937 19.4152 111.762 18.7202 111.762 17.9402C111.762 17.1502 111.937 16.4552 112.287 15.8552C112.637 15.2552 113.112 14.7852 113.712 14.4452C114.312 14.1052 114.997 13.9352 115.767 13.9352C116.547 13.9352 117.237 14.1052 117.837 14.4452C118.447 14.7852 118.922 15.2552 119.262 15.8552C119.612 16.4552 119.787 17.1502 119.787 17.9402C119.787 18.7202 119.612 19.4152 119.262 20.0252C118.922 20.6252 118.447 21.1002 117.837 21.4502C117.227 21.7902 116.537 21.9602 115.767 21.9602ZM115.767 21.0152C116.337 21.0152 116.842 20.8902 117.282 20.6402C117.722 20.3802 118.067 20.0202 118.317 19.5602C118.577 19.0902 118.707 18.5502 118.707 17.9402C118.707 17.3202 118.577 16.7802 118.317 16.3202C118.067 15.8602 117.722 15.5052 117.282 15.2552C116.842 14.9952 116.342 14.8652 115.782 14.8652C115.222 14.8652 114.722 14.9952 114.282 15.2552C113.842 15.5052 113.492 15.8602 113.232 16.3202C112.972 16.7802 112.842 17.3202 112.842 17.9402C112.842 18.5502 112.972 19.0902 113.232 19.5602C113.492 20.0202 113.842 20.3802 114.282 20.6402C114.722 20.8902 115.217 21.0152 115.767 21.0152ZM125.603 21.9752C124.963 21.9752 124.393 21.8702 123.893 21.6602C123.403 21.4502 122.983 21.1302 122.633 20.7002C122.283 20.2702 122.018 19.7402 121.838 19.1102C121.658 18.4702 121.568 17.7302 121.568 16.8902C121.568 16.1402 121.638 15.4852 121.778 14.9252C121.918 14.3552 122.113 13.8652 122.363 13.4552C122.613 13.0452 122.903 12.7002 123.233 12.4202C123.573 12.1302 123.938 11.9002 124.328 11.7302C124.728 11.5502 125.138 11.4152 125.558 11.3252L129.098 10.5002L129.278 11.4902L125.948 12.2402C125.738 12.2902 125.483 12.3602 125.183 12.4502C124.893 12.5402 124.593 12.6752 124.283 12.8552C123.983 13.0352 123.703 13.2852 123.443 13.6052C123.183 13.9252 122.973 14.3402 122.813 14.8502C122.663 15.3502 122.588 15.9752 122.588 16.7252C122.588 16.8852 122.593 17.0152 122.603 17.1152C122.613 17.2052 122.623 17.3052 122.633 17.4152C122.653 17.5152 122.668 17.6652 122.678 17.8652L122.213 17.4752C122.323 16.8652 122.548 16.3352 122.888 15.8852C123.228 15.4252 123.653 15.0702 124.163 14.8202C124.683 14.5602 125.258 14.4302 125.888 14.4302C126.618 14.4302 127.268 14.5902 127.838 14.9102C128.408 15.2202 128.853 15.6552 129.173 16.2152C129.503 16.7752 129.668 17.4252 129.668 18.1652C129.668 18.8952 129.498 19.5502 129.158 20.1302C128.828 20.7102 128.358 21.1652 127.748 21.4952C127.138 21.8152 126.423 21.9752 125.603 21.9752ZM125.723 21.0902C126.283 21.0902 126.778 20.9652 127.208 20.7152C127.638 20.4552 127.973 20.1052 128.213 19.6652C128.463 19.2252 128.588 18.7302 128.588 18.1802C128.588 17.6402 128.463 17.1602 128.213 16.7402C127.973 16.3202 127.638 15.9902 127.208 15.7502C126.778 15.5002 126.278 15.3752 125.708 15.3752C125.148 15.3752 124.653 15.4952 124.223 15.7352C123.793 15.9652 123.453 16.2902 123.203 16.7102C122.963 17.1302 122.843 17.6152 122.843 18.1652C122.843 18.7152 122.963 19.2102 123.203 19.6502C123.453 20.0902 123.793 20.4402 124.223 20.7002C124.663 20.9602 125.163 21.0902 125.723 21.0902ZM135.191 21.9602C134.431 21.9602 133.746 21.7902 133.136 21.4502C132.536 21.1002 132.061 20.6252 131.711 20.0252C131.361 19.4152 131.186 18.7202 131.186 17.9402C131.186 17.1502 131.361 16.4552 131.711 15.8552C132.061 15.2552 132.536 14.7852 133.136 14.4452C133.736 14.1052 134.421 13.9352 135.191 13.9352C135.971 13.9352 136.661 14.1052 137.261 14.4452C137.871 14.7852 138.346 15.2552 138.686 15.8552C139.036 16.4552 139.211 17.1502 139.211 17.9402C139.211 18.7202 139.036 19.4152 138.686 20.0252C138.346 20.6252 137.871 21.1002 137.261 21.4502C136.651 21.7902 135.961 21.9602 135.191 21.9602ZM135.191 21.0152C135.761 21.0152 136.266 20.8902 136.706 20.6402C137.146 20.3802 137.491 20.0202 137.741 19.5602C138.001 19.0902 138.131 18.5502 138.131 17.9402C138.131 17.3202 138.001 16.7802 137.741 16.3202C137.491 15.8602 137.146 15.5052 136.706 15.2552C136.266 14.9952 135.766 14.8652 135.206 14.8652C134.646 14.8652 134.146 14.9952 133.706 15.2552C133.266 15.5052 132.916 15.8602 132.656 16.3202C132.396 16.7802 132.266 17.3202 132.266 17.9402C132.266 18.5502 132.396 19.0902 132.656 19.5602C132.916 20.0202 133.266 20.3802 133.706 20.6402C134.146 20.8902 134.641 21.0152 135.191 21.0152ZM142.694 21.8852V14.6552L142.964 14.9402H139.709V14.0102H146.744V14.9402H143.489L143.759 14.6552V21.8852H142.694ZM147.685 21.9602C147.465 21.9602 147.275 21.8802 147.115 21.7202C146.965 21.5602 146.89 21.3652 146.89 21.1352C146.89 20.8952 146.965 20.7002 147.115 20.5502C147.275 20.4002 147.465 20.3252 147.685 20.3252C147.905 20.3252 148.09 20.4002 148.24 20.5502C148.4 20.7002 148.48 20.8952 148.48 21.1352C148.48 21.3652 148.4 21.5602 148.24 21.7202C148.09 21.8802 147.905 21.9602 147.685 21.9602ZM21.4786 39.8852V29.3852H28.1536V30.3452H22.2736L22.5586 30.0602L22.5736 39.8852H21.4786ZM31.2459 39.9602C30.4859 39.9602 29.8009 39.7902 29.1909 39.4502C28.5909 39.1002 28.1159 38.6252 27.7659 38.0252C27.4159 37.4152 27.2409 36.7202 27.2409 35.9402C27.2409 35.1502 27.4159 34.4552 27.7659 33.8552C28.1159 33.2552 28.5909 32.7852 29.1909 32.4452C29.7909 32.1052 30.4759 31.9352 31.2459 31.9352C32.0259 31.9352 32.7159 32.1052 33.3159 32.4452C33.9259 32.7852 34.4009 33.2552 34.7409 33.8552C35.0909 34.4552 35.2659 35.1502 35.2659 35.9402C35.2659 36.7202 35.0909 37.4152 34.7409 38.0252C34.4009 38.6252 33.9259 39.1002 33.3159 39.4502C32.7059 39.7902 32.0159 39.9602 31.2459 39.9602ZM31.2459 39.0152C31.8159 39.0152 32.3209 38.8902 32.7609 38.6402C33.2009 38.3802 33.5459 38.0202 33.7959 37.5602C34.0559 37.0902 34.1859 36.5502 34.1859 35.9402C34.1859 35.3202 34.0559 34.7802 33.7959 34.3202C33.5459 33.8602 33.2009 33.5052 32.7609 33.2552C32.3209 32.9952 31.8209 32.8652 31.2609 32.8652C30.7009 32.8652 30.2009 32.9952 29.7609 33.2552C29.3209 33.5052 28.9709 33.8602 28.7109 34.3202C28.4509 34.7802 28.3209 35.3202 28.3209 35.9402C28.3209 36.5502 28.4509 37.0902 28.7109 37.5602C28.9709 38.0202 29.3209 38.3802 29.7609 38.6402C30.2009 38.8902 30.6959 39.0152 31.2459 39.0152ZM38.749 39.8852V32.6552L39.019 32.9402H35.764V32.0102H42.799V32.9402H39.544L39.814 32.6552V39.8852H38.749ZM47.2127 39.9602C46.4527 39.9602 45.7677 39.7902 45.1577 39.4502C44.5577 39.1002 44.0827 38.6252 43.7327 38.0252C43.3827 37.4152 43.2077 36.7202 43.2077 35.9402C43.2077 35.1502 43.3827 34.4552 43.7327 33.8552C44.0827 33.2552 44.5577 32.7852 45.1577 32.4452C45.7577 32.1052 46.4427 31.9352 47.2127 31.9352C47.9927 31.9352 48.6827 32.1052 49.2827 32.4452C49.8927 32.7852 50.3677 33.2552 50.7077 33.8552C51.0577 34.4552 51.2327 35.1502 51.2327 35.9402C51.2327 36.7202 51.0577 37.4152 50.7077 38.0252C50.3677 38.6252 49.8927 39.1002 49.2827 39.4502C48.6727 39.7902 47.9827 39.9602 47.2127 39.9602ZM47.2127 39.0152C47.7827 39.0152 48.2877 38.8902 48.7277 38.6402C49.1677 38.3802 49.5127 38.0202 49.7627 37.5602C50.0227 37.0902 50.1527 36.5502 50.1527 35.9402C50.1527 35.3202 50.0227 34.7802 49.7627 34.3202C49.5127 33.8602 49.1677 33.5052 48.7277 33.2552C48.2877 32.9952 47.7877 32.8652 47.2277 32.8652C46.6677 32.8652 46.1677 32.9952 45.7277 33.2552C45.2877 33.5052 44.9377 33.8602 44.6777 34.3202C44.4177 34.7802 44.2877 35.3202 44.2877 35.9402C44.2877 36.5502 44.4177 37.0902 44.6777 37.5602C44.9377 38.0202 45.2877 38.3802 45.7277 38.6402C46.1677 38.8902 46.6627 39.0152 47.2127 39.0152ZM53.5088 39.8852V32.0102H56.9888C57.8788 32.0102 58.5788 32.1802 59.0888 32.5202C59.6088 32.8602 59.8688 33.3602 59.8688 34.0202C59.8688 34.6602 59.6238 35.1552 59.1338 35.5052C58.6438 35.8452 57.9988 36.0152 57.1988 36.0152L57.4088 35.7002C58.3488 35.7002 59.0388 35.8752 59.4788 36.2252C59.9188 36.5752 60.1388 37.0802 60.1388 37.7402C60.1388 38.4202 59.8888 38.9502 59.3888 39.3302C58.8988 39.7002 58.1338 39.8852 57.0938 39.8852H53.5088ZM54.5438 39.0452H57.0488C57.7188 39.0452 58.2238 38.9402 58.5638 38.7302C58.9138 38.5102 59.0888 38.1602 59.0888 37.6802C59.0888 37.2002 58.9338 36.8502 58.6238 36.6302C58.3138 36.4102 57.8238 36.3002 57.1538 36.3002H54.5438V39.0452ZM54.5438 35.5052H56.9138C57.5238 35.5052 57.9888 35.3902 58.3088 35.1602C58.6388 34.9302 58.8038 34.5952 58.8038 34.1552C58.8038 33.7152 58.6388 33.3852 58.3088 33.1652C57.9888 32.9452 57.5238 32.8352 56.9138 32.8352H54.5438V35.5052ZM69.8606 39.9602C69.0806 39.9602 68.3806 39.7902 67.7606 39.4502C67.1506 39.1002 66.6706 38.6252 66.3206 38.0252C65.9706 37.4152 65.7956 36.7202 65.7956 35.9402C65.7956 35.1502 65.9706 34.4552 66.3206 33.8552C66.6706 33.2552 67.1506 32.7852 67.7606 32.4452C68.3806 32.1052 69.0806 31.9352 69.8606 31.9352C70.5306 31.9352 71.1356 32.0652 71.6756 32.3252C72.2156 32.5852 72.6406 32.9752 72.9506 33.4952L72.1556 34.0352C71.8856 33.6352 71.5506 33.3402 71.1506 33.1502C70.7506 32.9602 70.3156 32.8652 69.8456 32.8652C69.2856 32.8652 68.7806 32.9952 68.3306 33.2552C67.8806 33.5052 67.5256 33.8602 67.2656 34.3202C67.0056 34.7802 66.8756 35.3202 66.8756 35.9402C66.8756 36.5602 67.0056 37.1002 67.2656 37.5602C67.5256 38.0202 67.8806 38.3802 68.3306 38.6402C68.7806 38.8902 69.2856 39.0152 69.8456 39.0152C70.3156 39.0152 70.7506 38.9202 71.1506 38.7302C71.5506 38.5402 71.8856 38.2502 72.1556 37.8602L72.9506 38.4002C72.6406 38.9102 72.2156 39.3002 71.6756 39.5702C71.1356 39.8302 70.5306 39.9602 69.8606 39.9602ZM76.3662 39.8852V32.6552L76.6362 32.9402H73.3812V32.0102H80.4162V32.9402H77.1612L77.4312 32.6552V39.8852H76.3662ZM86.8461 39.8852V38.1452L86.8011 37.8602V34.9502C86.8011 34.2802 86.6111 33.7652 86.2311 33.4052C85.8611 33.0452 85.3061 32.8652 84.5661 32.8652C84.0561 32.8652 83.5711 32.9502 83.1111 33.1202C82.6511 33.2902 82.2611 33.5152 81.9411 33.7952L81.4611 33.0002C81.8611 32.6602 82.3411 32.4002 82.9011 32.2202C83.4611 32.0302 84.0511 31.9352 84.6711 31.9352C85.6911 31.9352 86.4761 32.1902 87.0261 32.7002C87.5861 33.2002 87.8661 33.9652 87.8661 34.9952V39.8852H86.8461ZM84.1311 39.9602C83.5411 39.9602 83.0261 39.8652 82.5861 39.6752C82.1561 39.4752 81.8261 39.2052 81.5961 38.8652C81.3661 38.5152 81.2511 38.1152 81.2511 37.6652C81.2511 37.2552 81.3461 36.8852 81.5361 36.5552C81.7361 36.2152 82.0561 35.9452 82.4961 35.7452C82.9461 35.5352 83.5461 35.4302 84.2961 35.4302H87.0111V36.2252H84.3261C83.5661 36.2252 83.0361 36.3602 82.7361 36.6302C82.4461 36.9002 82.3011 37.2352 82.3011 37.6352C82.3011 38.0852 82.4761 38.4452 82.8261 38.7152C83.1761 38.9852 83.6661 39.1202 84.2961 39.1202C84.8961 39.1202 85.4111 38.9852 85.8411 38.7152C86.2811 38.4352 86.6011 38.0352 86.8011 37.5152L87.0411 38.2502C86.8411 38.7702 86.4911 39.1852 85.9911 39.4952C85.5011 39.8052 84.8811 39.9602 84.1311 39.9602ZM92.2012 39.8852V32.6552L92.4712 32.9402H89.2162V32.0102H96.2512V32.9402H92.9962L93.2662 32.6552V39.8852H92.2012ZM100.971 39.9002L97.791 39.8852V32.0102H98.856V34.7552L101.181 34.7852C102.171 34.7952 102.921 35.0152 103.431 35.4452C103.951 35.8752 104.211 36.4952 104.211 37.3052C104.211 38.1452 103.931 38.7902 103.371 39.2402C102.821 39.6902 102.021 39.9102 100.971 39.9002ZM100.911 39.0902C101.641 39.1002 102.191 38.9552 102.561 38.6552C102.941 38.3452 103.131 37.8952 103.131 37.3052C103.131 36.7152 102.946 36.2852 102.576 36.0152C102.206 35.7352 101.651 35.5902 100.911 35.5802L98.856 35.5502V39.0602L100.911 39.0902ZM115.944 39.8852L112.704 35.9852L113.589 35.4602L117.204 39.8852H115.944ZM110.169 39.8852V32.0102H111.234V39.8852H110.169ZM110.904 36.3752V35.4602H113.439V36.3752H110.904ZM113.679 36.0602L112.689 35.9102L115.824 32.0102H116.979L113.679 36.0602ZM118.885 39.8852V32.0102H119.95V38.2652L125.215 32.0102H126.16V39.8852H125.095V33.6152L119.845 39.8852H118.885ZM132.752 39.9752C132.112 39.9752 131.542 39.8702 131.042 39.6602C130.552 39.4502 130.132 39.1302 129.782 38.7002C129.432 38.2702 129.167 37.7402 128.987 37.1102C128.807 36.4702 128.717 35.7302 128.717 34.8902C128.717 34.1402 128.787 33.4852 128.927 32.9252C129.067 32.3552 129.262 31.8652 129.512 31.4552C129.762 31.0452 130.052 30.7002 130.382 30.4202C130.722 30.1302 131.087 29.9002 131.477 29.7302C131.877 29.5502 132.287 29.4152 132.707 29.3252L136.247 28.5002L136.427 29.4902L133.097 30.2402C132.887 30.2902 132.632 30.3602 132.332 30.4502C132.042 30.5402 131.742 30.6752 131.432 30.8552C131.132 31.0352 130.852 31.2852 130.592 31.6052C130.332 31.9252 130.122 32.3402 129.962 32.8502C129.812 33.3502 129.737 33.9752 129.737 34.7252C129.737 34.8852 129.742 35.0152 129.752 35.1152C129.762 35.2052 129.772 35.3052 129.782 35.4152C129.802 35.5152 129.817 35.6652 129.827 35.8652L129.362 35.4752C129.472 34.8652 129.697 34.3352 130.037 33.8852C130.377 33.4252 130.802 33.0702 131.312 32.8202C131.832 32.5602 132.407 32.4302 133.037 32.4302C133.767 32.4302 134.417 32.5902 134.987 32.9102C135.557 33.2202 136.002 33.6552 136.322 34.2152C136.652 34.7752 136.817 35.4252 136.817 36.1652C136.817 36.8952 136.647 37.5502 136.307 38.1302C135.977 38.7102 135.507 39.1652 134.897 39.4952C134.287 39.8152 133.572 39.9752 132.752 39.9752ZM132.872 39.0902C133.432 39.0902 133.927 38.9652 134.357 38.7152C134.787 38.4552 135.122 38.1052 135.362 37.6652C135.612 37.2252 135.737 36.7302 135.737 36.1802C135.737 35.6402 135.612 35.1602 135.362 34.7402C135.122 34.3202 134.787 33.9902 134.357 33.7502C133.927 33.5002 133.427 33.3752 132.857 33.3752C132.297 33.3752 131.802 33.4952 131.372 33.7352C130.942 33.9652 130.602 34.2902 130.352 34.7102C130.112 35.1302 129.992 35.6152 129.992 36.1652C129.992 36.7152 130.112 37.2102 130.352 37.6502C130.602 38.0902 130.942 38.4402 131.372 38.7002C131.812 38.9602 132.312 39.0902 132.872 39.0902ZM142.475 39.9602C141.655 39.9602 140.935 39.7902 140.315 39.4502C139.695 39.1002 139.21 38.6252 138.86 38.0252C138.51 37.4152 138.335 36.7202 138.335 35.9402C138.335 35.1602 138.5 34.4702 138.83 33.8702C139.17 33.2702 139.63 32.8002 140.21 32.4602C140.8 32.1102 141.46 31.9352 142.19 31.9352C142.93 31.9352 143.585 32.1052 144.155 32.4452C144.735 32.7752 145.19 33.2452 145.52 33.8552C145.85 34.4552 146.015 35.1502 146.015 35.9402C146.015 35.9902 146.01 36.0452 146 36.1052C146 36.1552 146 36.2102 146 36.2702H139.145V35.4752H145.43L145.01 35.7902C145.01 35.2202 144.885 34.7152 144.635 34.2752C144.395 33.8252 144.065 33.4752 143.645 33.2252C143.225 32.9752 142.74 32.8502 142.19 32.8502C141.65 32.8502 141.165 32.9752 140.735 33.2252C140.305 33.4752 139.97 33.8252 139.73 34.2752C139.49 34.7252 139.37 35.2402 139.37 35.8202V35.9852C139.37 36.5852 139.5 37.1152 139.76 37.5752C140.03 38.0252 140.4 38.3802 140.87 38.6402C141.35 38.8902 141.895 39.0152 142.505 39.0152C142.985 39.0152 143.43 38.9302 143.84 38.7602C144.26 38.5902 144.62 38.3302 144.92 37.9802L145.52 38.6702C145.17 39.0902 144.73 39.4102 144.2 39.6302C143.68 39.8502 143.105 39.9602 142.475 39.9602ZM152.437 39.9602C151.757 39.9602 151.142 39.8052 150.592 39.4952C150.042 39.1752 149.602 38.7202 149.272 38.1302C148.952 37.5302 148.792 36.8002 148.792 35.9402C148.792 35.0802 148.952 34.3552 149.272 33.7652C149.592 33.1652 150.027 32.7102 150.577 32.4002C151.127 32.0902 151.747 31.9352 152.437 31.9352C153.187 31.9352 153.857 32.1052 154.447 32.4452C155.047 32.7752 155.517 33.2452 155.857 33.8552C156.197 34.4552 156.367 35.1502 156.367 35.9402C156.367 36.7402 156.197 37.4402 155.857 38.0402C155.517 38.6402 155.047 39.1102 154.447 39.4502C153.857 39.7902 153.187 39.9602 152.437 39.9602ZM148.372 42.7952V32.0102H149.392V34.3802L149.287 35.9552L149.437 37.5452V42.7952H148.372ZM152.362 39.0152C152.922 39.0152 153.422 38.8902 153.862 38.6402C154.302 38.3802 154.652 38.0202 154.912 37.5602C155.172 37.0902 155.302 36.5502 155.302 35.9402C155.302 35.3302 155.172 34.7952 154.912 34.3352C154.652 33.8752 154.302 33.5152 153.862 33.2552C153.422 32.9952 152.922 32.8652 152.362 32.8652C151.802 32.8652 151.297 32.9952 150.847 33.2552C150.407 33.5152 150.057 33.8752 149.797 34.3352C149.547 34.7952 149.422 35.3302 149.422 35.9402C149.422 36.5502 149.547 37.0902 149.797 37.5602C150.057 38.0202 150.407 38.3802 150.847 38.6402C151.297 38.8902 151.802 39.0152 152.362 39.0152ZM158.187 36.2852V35.3552H162.117V36.2852H158.187ZM167.976 39.9602C167.196 39.9602 166.496 39.7902 165.876 39.4502C165.266 39.1002 164.786 38.6252 164.436 38.0252C164.086 37.4152 163.911 36.7202 163.911 35.9402C163.911 35.1502 164.086 34.4552 164.436 33.8552C164.786 33.2552 165.266 32.7852 165.876 32.4452C166.496 32.1052 167.196 31.9352 167.976 31.9352C168.646 31.9352 169.251 32.0652 169.791 32.3252C170.331 32.5852 170.756 32.9752 171.066 33.4952L170.271 34.0352C170.001 33.6352 169.666 33.3402 169.266 33.1502C168.866 32.9602 168.431 32.8652 167.961 32.8652C167.401 32.8652 166.896 32.9952 166.446 33.2552C165.996 33.5052 165.641 33.8602 165.381 34.3202C165.121 34.7802 164.991 35.3202 164.991 35.9402C164.991 36.5602 165.121 37.1002 165.381 37.5602C165.641 38.0202 165.996 38.3802 166.446 38.6402C166.896 38.8902 167.401 39.0152 167.961 39.0152C168.431 39.0152 168.866 38.9202 169.266 38.7302C169.666 38.5402 170.001 38.2502 170.271 37.8602L171.066 38.4002C170.756 38.9102 170.331 39.3002 169.791 39.5702C169.251 39.8302 168.646 39.9602 167.976 39.9602ZM174.481 39.8852V32.6552L174.751 32.9402H171.496V32.0102H178.531V32.9402H175.276L175.546 32.6552V39.8852H174.481ZM184.136 39.9602C183.456 39.9602 182.841 39.8052 182.291 39.4952C181.741 39.1752 181.301 38.7202 180.971 38.1302C180.651 37.5302 180.491 36.8002 180.491 35.9402C180.491 35.0802 180.651 34.3552 180.971 33.7652C181.291 33.1652 181.726 32.7102 182.276 32.4002C182.826 32.0902 183.446 31.9352 184.136 31.9352C184.886 31.9352 185.556 32.1052 186.146 32.4452C186.746 32.7752 187.216 33.2452 187.556 33.8552C187.896 34.4552 188.066 35.1502 188.066 35.9402C188.066 36.7402 187.896 37.4402 187.556 38.0402C187.216 38.6402 186.746 39.1102 186.146 39.4502C185.556 39.7902 184.886 39.9602 184.136 39.9602ZM180.071 42.7952V32.0102H181.091V34.3802L180.986 35.9552L181.136 37.5452V42.7952H180.071ZM184.061 39.0152C184.621 39.0152 185.121 38.8902 185.561 38.6402C186.001 38.3802 186.351 38.0202 186.611 37.5602C186.871 37.0902 187.001 36.5502 187.001 35.9402C187.001 35.3302 186.871 34.7952 186.611 34.3352C186.351 33.8752 186.001 33.5152 185.561 33.2552C185.121 32.9952 184.621 32.8652 184.061 32.8652C183.501 32.8652 182.996 32.9952 182.546 33.2552C182.106 33.5152 181.756 33.8752 181.496 34.3352C181.246 34.7952 181.121 35.3302 181.121 35.9402C181.121 36.5502 181.246 37.0902 181.496 37.5602C181.756 38.0202 182.106 38.3802 182.546 38.6402C182.996 38.8902 183.501 39.0152 184.061 39.0152ZM195.201 39.8852V38.1452L195.156 37.8602V34.9502C195.156 34.2802 194.966 33.7652 194.586 33.4052C194.216 33.0452 193.661 32.8652 192.921 32.8652C192.411 32.8652 191.926 32.9502 191.466 33.1202C191.006 33.2902 190.616 33.5152 190.296 33.7952L189.816 33.0002C190.216 32.6602 190.696 32.4002 191.256 32.2202C191.816 32.0302 192.406 31.9352 193.026 31.9352C194.046 31.9352 194.831 32.1902 195.381 32.7002C195.941 33.2002 196.221 33.9652 196.221 34.9952V39.8852H195.201ZM192.486 39.9602C191.896 39.9602 191.381 39.8652 190.941 39.6752C190.511 39.4752 190.181 39.2052 189.951 38.8652C189.721 38.5152 189.606 38.1152 189.606 37.6652C189.606 37.2552 189.701 36.8852 189.891 36.5552C190.091 36.2152 190.411 35.9452 190.851 35.7452C191.301 35.5352 191.901 35.4302 192.651 35.4302H195.366V36.2252H192.681C191.921 36.2252 191.391 36.3602 191.091 36.6302C190.801 36.9002 190.656 37.2352 190.656 37.6352C190.656 38.0852 190.831 38.4452 191.181 38.7152C191.531 38.9852 192.021 39.1202 192.651 39.1202C193.251 39.1202 193.766 38.9852 194.196 38.7152C194.636 38.4352 194.956 38.0352 195.156 37.5152L195.396 38.2502C195.196 38.7702 194.846 39.1852 194.346 39.4952C193.856 39.8052 193.236 39.9602 192.486 39.9602ZM208.401 39.8852L205.701 35.9852L206.586 35.4602L209.676 39.8852H208.401ZM197.796 39.8852L200.886 35.4602L201.756 35.9852L199.071 39.8852H197.796ZM200.796 36.0602L198.021 32.0102H199.176L201.786 35.9102L200.796 36.0602ZM201.051 36.3752V35.4602H203.526V36.3752H201.051ZM203.196 39.8852V32.0102H204.261V39.8852H203.196ZM203.931 36.3752V35.4602H206.421V36.3752H203.931ZM206.691 36.0602L205.671 35.9102L208.296 32.0102H209.451L206.691 36.0602ZM214.574 39.9602C213.754 39.9602 213.034 39.7902 212.414 39.4502C211.794 39.1002 211.309 38.6252 210.959 38.0252C210.609 37.4152 210.434 36.7202 210.434 35.9402C210.434 35.1602 210.599 34.4702 210.929 33.8702C211.269 33.2702 211.729 32.8002 212.309 32.4602C212.899 32.1102 213.559 31.9352 214.289 31.9352C215.029 31.9352 215.684 32.1052 216.254 32.4452C216.834 32.7752 217.289 33.2452 217.619 33.8552C217.949 34.4552 218.114 35.1502 218.114 35.9402C218.114 35.9902 218.109 36.0452 218.099 36.1052C218.099 36.1552 218.099 36.2102 218.099 36.2702H211.244V35.4752H217.529L217.109 35.7902C217.109 35.2202 216.984 34.7152 216.734 34.2752C216.494 33.8252 216.164 33.4752 215.744 33.2252C215.324 32.9752 214.839 32.8502 214.289 32.8502C213.749 32.8502 213.264 32.9752 212.834 33.2252C212.404 33.4752 212.069 33.8252 211.829 34.2752C211.589 34.7252 211.469 35.2402 211.469 35.8202V35.9852C211.469 36.5852 211.599 37.1152 211.859 37.5752C212.129 38.0252 212.499 38.3802 212.969 38.6402C213.449 38.8902 213.994 39.0152 214.604 39.0152C215.084 39.0152 215.529 38.9302 215.939 38.7602C216.359 38.5902 216.719 38.3302 217.019 37.9802L217.619 38.6702C217.269 39.0902 216.829 39.4102 216.299 39.6302C215.779 39.8502 215.204 39.9602 214.574 39.9602ZM220.472 39.8852V32.0102H221.552L225.122 38.0552H224.672L228.302 32.0102H229.292V39.8852H228.317V33.2252L228.512 33.3152L225.122 38.9252H224.642L221.222 33.2552L221.447 33.2102V39.8852H220.472ZM234.742 36.7352C234.742 36.3152 234.807 35.9552 234.937 35.6552C235.077 35.3552 235.247 35.0902 235.447 34.8602C235.657 34.6302 235.877 34.4152 236.107 34.2152C236.347 34.0152 236.572 33.8152 236.782 33.6152C236.992 33.4052 237.162 33.1802 237.292 32.9402C237.422 32.6902 237.487 32.4002 237.487 32.0702C237.487 31.5302 237.277 31.0902 236.857 30.7502C236.437 30.4102 235.842 30.2402 235.072 30.2402C234.432 30.2402 233.877 30.3452 233.407 30.5552C232.937 30.7552 232.537 31.0552 232.207 31.4552L231.412 30.8552C231.812 30.3552 232.327 29.9702 232.957 29.7002C233.587 29.4302 234.317 29.2952 235.147 29.2952C235.847 29.2952 236.452 29.4002 236.962 29.6102C237.482 29.8202 237.882 30.1202 238.162 30.5102C238.452 30.9002 238.597 31.3652 238.597 31.9052C238.597 32.3352 238.527 32.7052 238.387 33.0152C238.257 33.3152 238.087 33.5852 237.877 33.8252C237.677 34.0552 237.457 34.2752 237.217 34.4852C236.987 34.6852 236.767 34.8902 236.557 35.1002C236.347 35.3102 236.177 35.5452 236.047 35.8052C235.917 36.0652 235.852 36.3752 235.852 36.7352H234.742ZM235.297 39.9602C235.087 39.9602 234.902 39.8852 234.742 39.7352C234.592 39.5752 234.517 39.3902 234.517 39.1802C234.517 38.9602 234.592 38.7802 234.742 38.6402C234.902 38.4902 235.087 38.4152 235.297 38.4152C235.527 38.4152 235.717 38.4902 235.867 38.6402C236.017 38.7802 236.092 38.9602 236.092 39.1802C236.092 39.3902 236.017 39.5752 235.867 39.7352C235.717 39.8852 235.527 39.9602 235.297 39.9602Z" fill="white"/>
<defs>
<linearGradient id="paint0_linear_65_3" x1="0.84691" y1="27.7171" x2="237.971" y2="31.4572" gradientUnits="userSpaceOnUse">
<stop stop-color="#08A9FD"/>
<stop offset="1" stop-color="#1E88C7"/>
</linearGradient>
</defs>
</svg>
